<svg xmlns='http://www.w3.org/2000/svg' version='1.1'><rect x="362" y="360" width="10" height="10" stroke="black" fill="black" /> 
<line x1="362" y1="360" x2="365" y2="359" stroke="black" stroke-dasharray="1,2" /> 
<line x1="365" y1="359" x2="368" y2="359" stroke="black" stroke-dasharray="1,2" /> 
<line x1="368" y1="359" x2="371" y2="358" stroke="black" stroke-dasharray="1,2" /> 
<line x1="371" y1="358" x2="374" y2="358" stroke="black" stroke-dasharray="1,2" /> 
<line x1="374" y1="358" x2="377" y2="357" stroke="black" stroke-dasharray="1,2" /> 
<line x1="377" y1="357" x2="380" y2="357" stroke="black" stroke-dasharray="1,2" /> 
<line x1="380" y1="357" x2="384" y2="356" stroke="black" stroke-dasharray="1,2" /> 
<line x1="384" y1="356" x2="387" y2="356" stroke="black" stroke-dasharray="1,2" /> 
<line x1="387" y1="356" x2="390" y2="355" stroke="black" stroke-dasharray="1,2" /> 
<line x1="390" y1="355" x2="393" y2="355" stroke="black" stroke-dasharray="1,2" /> 
<line x1="393" y1="355" x2="396" y2="354" stroke="black" stroke-dasharray="1,2" /> 
<line x1="396" y1="354" x2="399" y2="354" stroke="black" stroke-dasharray="1,2" /> 
<line x1="399" y1="354" x2="403" y2="353" stroke="black" stroke-dasharray="1,2" /> 
<line x1="403" y1="353" x2="406" y2="353" stroke="black" stroke-dasharray="1,2" /> 
<line x1="406" y1="353" x2="409" y2="352" stroke="black" stroke-dasharray="1,2" /> 
<line x1="409" y1="352" x2="412" y2="352" stroke="black" stroke-dasharray="1,2" /> 
<line x1="412" y1="352" x2="415" y2="351" stroke="black" stroke-dasharray="1,2" /> 
<line x1="415" y1="351" x2="418" y2="351" stroke="black" stroke-dasharray="1,2" /> 
<line x1="418" y1="351" x2="422" y2="350" stroke="black" stroke-dasharray="1,2" /> 
<line x1="422" y1="350" x2="425" y2="350" stroke="black" stroke-dasharray="1,2" /> 
<line x1="425" y1="350" x2="428" y2="349" stroke="black" stroke-dasharray="1,2" /> 
<line x1="428" y1="349" x2="431" y2="349" stroke="black" stroke-dasharray="1,2" /> 
<line x1="431" y1="349" x2="434" y2="348" stroke="black" stroke-dasharray="1,2" /> 
<line x1="434" y1="348" x2="437" y2="348" stroke="black" stroke-dasharray="1,2" /> 
<line x1="437" y1="348" x2="441" y2="348" stroke="black" stroke-dasharray="1,2" /> 
<circle cx="441" cy="348" r="15" fill="black" /> 
<rect x="362" y="360" width="10" height="10" stroke="green" fill="green" /> 
<line x1="362" y1="360" x2="355" y2="358" stroke="green" stroke-dasharray="5,5" /> 
<line x1="355" y1="358" x2="348" y2="355" stroke="green" stroke-dasharray="5,5" /> 
<line x1="348" y1="355" x2="341" y2="351" stroke="green" stroke-dasharray="5,5" /> 
<line x1="341" y1="351" x2="335" y2="346" stroke="green" stroke-dasharray="5,5" /> 
<line x1="335" y1="346" x2="329" y2="341" stroke="green" stroke-dasharray="5,5" /> 
<line x1="329" y1="341" x2="324" y2="335" stroke="green" stroke-dasharray="5,5" /> 
<line x1="324" y1="335" x2="319" y2="329" stroke="green" stroke-dasharray="5,5" /> 
<line x1="319" y1="329" x2="315" y2="323" stroke="green" stroke-dasharray="5,5" /> 
<line x1="315" y1="323" x2="312" y2="317" stroke="green" stroke-dasharray="5,5" /> 
<line x1="312" y1="317" x2="310" y2="311" stroke="green" stroke-dasharray="5,5" /> 
<line x1="310" y1="311" x2="308" y2="305" stroke="green" stroke-dasharray="5,5" /> 
<line x1="308" y1="305" x2="308" y2="300" stroke="green" stroke-dasharray="5,5" /> 
<line x1="308" y1="300" x2="309" y2="295" stroke="green" stroke-dasharray="5,5" /> 
<line x1="309" y1="295" x2="311" y2="291" stroke="green" stroke-dasharray="5,5" /> 
<line x1="311" y1="291" x2="314" y2="288" stroke="green" stroke-dasharray="5,5" /> 
<line x1="314" y1="288" x2="319" y2="287" stroke="green" stroke-dasharray="5,5" /> 
<line x1="319" y1="287" x2="325" y2="286" stroke="green" stroke-dasharray="5,5" /> 
<line x1="325" y1="286" x2="333" y2="287" stroke="green" stroke-dasharray="5,5" /> 
<line x1="333" y1="287" x2="343" y2="290" stroke="green" stroke-dasharray="5,5" /> 
<line x1="343" y1="290" x2="354" y2="294" stroke="green" stroke-dasharray="5,5" /> 
<line x1="354" y1="294" x2="367" y2="300" stroke="green" stroke-dasharray="5,5" /> 
<line x1="367" y1="300" x2="382" y2="309" stroke="green" stroke-dasharray="5,5" /> 
<line x1="382" y1="309" x2="400" y2="319" stroke="green" stroke-dasharray="5,5" /> 
<line x1="400" y1="319" x2="419" y2="332" stroke="green" stroke-dasharray="5,5" /> 
<line x1="419" y1="332" x2="441" y2="348" stroke="green" stroke-dasharray="5,5" /> 
<circle cx="441" cy="348" r="10" fill="green" /> 
<rect x="362" y="447" width="10" height="10" stroke="black" fill="black" /> 
<line x1="362" y1="447" x2="365" y2="447" stroke="black" stroke-dasharray="1,2" /> 
<line x1="365" y1="447" x2="368" y2="447" stroke="black" stroke-dasharray="1,2" /> 
<line x1="368" y1="447" x2="371" y2="448" stroke="black" stroke-dasharray="1,2" /> 
<line x1="371" y1="448" x2="374" y2="448" stroke="black" stroke-dasharray="1,2" /> 
<line x1="374" y1="448" x2="377" y2="449" stroke="black" stroke-dasharray="1,2" /> 
<line x1="377" y1="449" x2="380" y2="449" stroke="black" stroke-dasharray="1,2" /> 
<line x1="380" y1="449" x2="384" y2="450" stroke="black" stroke-dasharray="1,2" /> 
<line x1="384" y1="450" x2="387" y2="450" stroke="black" stroke-dasharray="1,2" /> 
<line x1="387" y1="450" x2="390" y2="451" stroke="black" stroke-dasharray="1,2" /> 
<line x1="390" y1="451" x2="393" y2="451" stroke="black" stroke-dasharray="1,2" /> 
<line x1="393" y1="451" x2="396" y2="452" stroke="black" stroke-dasharray="1,2" /> 
<line x1="396" y1="452" x2="399" y2="452" stroke="black" stroke-dasharray="1,2" /> 
<line x1="399" y1="452" x2="403" y2="453" stroke="black" stroke-dasharray="1,2" /> 
<line x1="403" y1="453" x2="406" y2="453" stroke="black" stroke-dasharray="1,2" /> 
<line x1="406" y1="453" x2="409" y2="454" stroke="black" stroke-dasharray="1,2" /> 
<line x1="409" y1="454" x2="412" y2="454" stroke="black" stroke-dasharray="1,2" /> 
<line x1="412" y1="454" x2="415" y2="455" stroke="black" stroke-dasharray="1,2" /> 
<line x1="415" y1="455" x2="418" y2="455" stroke="black" stroke-dasharray="1,2" /> 
<line x1="418" y1="455" x2="422" y2="456" stroke="black" stroke-dasharray="1,2" /> 
<line x1="422" y1="456" x2="425" y2="456" stroke="black" stroke-dasharray="1,2" /> 
<line x1="425" y1="456" x2="428" y2="457" stroke="black" stroke-dasharray="1,2" /> 
<line x1="428" y1="457" x2="431" y2="457" stroke="black" stroke-dasharray="1,2" /> 
<line x1="431" y1="457" x2="434" y2="458" stroke="black" stroke-dasharray="1,2" /> 
<line x1="434" y1="458" x2="437" y2="458" stroke="black" stroke-dasharray="1,2" /> 
<line x1="437" y1="458" x2="441" y2="459" stroke="black" stroke-dasharray="1,2" /> 
<circle cx="441" cy="459" r="15" fill="black" /> 
<rect x="362" y="447" width="10" height="10" stroke="green" fill="green" /> 
<line x1="362" y1="447" x2="355" y2="448" stroke="green" stroke-dasharray="5,5" /> 
<line x1="355" y1="448" x2="348" y2="451" stroke="green" stroke-dasharray="5,5" /> 
<line x1="348" y1="451" x2="341" y2="455" stroke="green" stroke-dasharray="5,5" /> 
<line x1="341" y1="455" x2="335" y2="460" stroke="green" stroke-dasharray="5,5" /> 
<line x1="335" y1="460" x2="329" y2="465" stroke="green" stroke-dasharray="5,5" /> 
<line x1="329" y1="465" x2="324" y2="471" stroke="green" stroke-dasharray="5,5" /> 
<line x1="324" y1="471" x2="319" y2="477" stroke="green" stroke-dasharray="5,5" /> 
<line x1="319" y1="477" x2="315" y2="483" stroke="green" stroke-dasharray="5,5" /> 
<line x1="315" y1="483" x2="312" y2="489" stroke="green" stroke-dasharray="5,5" /> 
<line x1="312" y1="489" x2="310" y2="495" stroke="green" stroke-dasharray="5,5" /> 
<line x1="310" y1="495" x2="308" y2="501" stroke="green" stroke-dasharray="5,5" /> 
<line x1="308" y1="501" x2="308" y2="506" stroke="green" stroke-dasharray="5,5" /> 
<line x1="308" y1="506" x2="309" y2="511" stroke="green" stroke-dasharray="5,5" /> 
<line x1="309" y1="511" x2="311" y2="515" stroke="green" stroke-dasharray="5,5" /> 
<line x1="311" y1="515" x2="314" y2="518" stroke="green" stroke-dasharray="5,5" /> 
<line x1="314" y1="518" x2="319" y2="519" stroke="green" stroke-dasharray="5,5" /> 
<line x1="319" y1="519" x2="325" y2="520" stroke="green" stroke-dasharray="5,5" /> 
<line x1="325" y1="520" x2="333" y2="519" stroke="green" stroke-dasharray="5,5" /> 
<line x1="333" y1="519" x2="343" y2="516" stroke="green" stroke-dasharray="5,5" /> 
<line x1="343" y1="516" x2="354" y2="512" stroke="green" stroke-dasharray="5,5" /> 
<line x1="354" y1="512" x2="367" y2="506" stroke="green" stroke-dasharray="5,5" /> 
<line x1="367" y1="506" x2="382" y2="497" stroke="green" stroke-dasharray="5,5" /> 
<line x1="382" y1="497" x2="400" y2="487" stroke="green" stroke-dasharray="5,5" /> 
<line x1="400" y1="487" x2="419" y2="474" stroke="green" stroke-dasharray="5,5" /> 
<line x1="419" y1="474" x2="441" y2="459" stroke="green" stroke-dasharray="5,5" /> 
<circle cx="441" cy="459" r="10" fill="green" /> 
</svg>