<svg xmlns='http://www.w3.org/2000/svg' version='1.1'><rect x="270" y="467" width="10" height="10" stroke="green" fill="green" /> 
<line x1="270" y1="467" x2="271" y2="459" stroke="green" stroke-dasharray="5,5" /> 
<line x1="271" y1="459" x2="272" y2="452" stroke="green" stroke-dasharray="5,5" /> 
<line x1="272" y1="452" x2="274" y2="445" stroke="green" stroke-dasharray="5,5" /> 
<line x1="274" y1="445" x2="275" y2="438" stroke="green" stroke-dasharray="5,5" /> 
<line x1="275" y1="438" x2="277" y2="430" stroke="green" stroke-dasharray="5,5" /> 
<line x1="277" y1="430" x2="278" y2="423" stroke="green" stroke-dasharray="5,5" /> 
<line x1="278" y1="423" x2="280" y2="416" stroke="green" stroke-dasharray="5,5" /> 
<line x1="280" y1="416" x2="281" y2="409" stroke="green" stroke-dasharray="5,5" /> 
<line x1="281" y1="409" x2="283" y2="401" stroke="green" stroke-dasharray="5,5" /> 
<line x1="283" y1="401" x2="284" y2="394" stroke="green" stroke-dasharray="5,5" /> 
<line x1="284" y1="394" x2="286" y2="387" stroke="green" stroke-dasharray="5,5" /> 
<line x1="286" y1="387" x2="287" y2="380" stroke="green" stroke-dasharray="5,5" /> 
<line x1="287" y1="380" x2="289" y2="372" stroke="green" stroke-dasharray="5,5" /> 
<line x1="289" y1="372" x2="290" y2="365" stroke="green" stroke-dasharray="5,5" /> 
<line x1="290" y1="365" x2="292" y2="358" stroke="green" stroke-dasharray="5,5" /> 
<line x1="292" y1="358" x2="293" y2="351" stroke="green" stroke-dasharray="5,5" /> 
<line x1="293" y1="351" x2="295" y2="343" stroke="green" stroke-dasharray="5,5" /> 
<line x1="295" y1="343" x2="296" y2="336" stroke="green" stroke-dasharray="5,5" /> 
<line x1="296" y1="336" x2="298" y2="329" stroke="green" stroke-dasharray="5,5" /> 
<line x1="298" y1="329" x2="299" y2="322" stroke="green" stroke-dasharray="5,5" /> 
<line x1="299" y1="322" x2="301" y2="314" stroke="green" stroke-dasharray="5,5" /> 
<line x1="301" y1="314" x2="302" y2="307" stroke="green" stroke-dasharray="5,5" /> 
<line x1="302" y1="307" x2="304" y2="300" stroke="green" stroke-dasharray="5,5" /> 
<line x1="304" y1="300" x2="305" y2="293" stroke="green" stroke-dasharray="5,5" /> 
<line x1="305" y1="293" x2="307" y2="286" stroke="green" stroke-dasharray="5,5" /> 
<circle cx="307" cy="286" r="10" fill="green" /> 
<rect x="270" y="467" width="10" height="10" stroke="green" fill="green" /> 
<line x1="270" y1="467" x2="279" y2="467" stroke="green" stroke-dasharray="5,5" /> 
<line x1="279" y1="467" x2="288" y2="466" stroke="green" stroke-dasharray="5,5" /> 
<line x1="288" y1="466" x2="297" y2="463" stroke="green" stroke-dasharray="5,5" /> 
<line x1="297" y1="463" x2="305" y2="460" stroke="green" stroke-dasharray="5,5" /> 
<line x1="305" y1="460" x2="312" y2="456" stroke="green" stroke-dasharray="5,5" /> 
<line x1="312" y1="456" x2="318" y2="451" stroke="green" stroke-dasharray="5,5" /> 
<line x1="318" y1="451" x2="324" y2="445" stroke="green" stroke-dasharray="5,5" /> 
<line x1="324" y1="445" x2="328" y2="439" stroke="green" stroke-dasharray="5,5" /> 
<line x1="328" y1="439" x2="333" y2="432" stroke="green" stroke-dasharray="5,5" /> 
<line x1="333" y1="432" x2="336" y2="424" stroke="green" stroke-dasharray="5,5" /> 
<line x1="336" y1="424" x2="339" y2="416" stroke="green" stroke-dasharray="5,5" /> 
<line x1="339" y1="416" x2="341" y2="407" stroke="green" stroke-dasharray="5,5" /> 
<line x1="341" y1="407" x2="343" y2="398" stroke="green" stroke-dasharray="5,5" /> 
<line x1="343" y1="398" x2="343" y2="389" stroke="green" stroke-dasharray="5,5" /> 
<line x1="343" y1="389" x2="343" y2="379" stroke="green" stroke-dasharray="5,5" /> 
<line x1="343" y1="379" x2="343" y2="369" stroke="green" stroke-dasharray="5,5" /> 
<line x1="343" y1="369" x2="342" y2="359" stroke="green" stroke-dasharray="5,5" /> 
<line x1="342" y1="359" x2="340" y2="349" stroke="green" stroke-dasharray="5,5" /> 
<line x1="340" y1="349" x2="337" y2="340" stroke="green" stroke-dasharray="5,5" /> 
<line x1="337" y1="340" x2="333" y2="330" stroke="green" stroke-dasharray="5,5" /> 
<line x1="333" y1="330" x2="329" y2="320" stroke="green" stroke-dasharray="5,5" /> 
<line x1="329" y1="320" x2="325" y2="311" stroke="green" stroke-dasharray="5,5" /> 
<line x1="325" y1="311" x2="319" y2="302" stroke="green" stroke-dasharray="5,5" /> 
<line x1="319" y1="302" x2="313" y2="294" stroke="green" stroke-dasharray="5,5" /> 
<line x1="313" y1="294" x2="307" y2="286" stroke="green" stroke-dasharray="5,5" /> 
<circle cx="307" cy="286" r="10" fill="green" /> 
</svg>